<svg xmlns="http://www.w3.org/2000/svg" xmlns:xlink="http://www.w3.org/1999/xlink" viewBox="0 0 793.35 112.5"><defs><style>.cls-1{fill:none;}.cls-2{clip-path:url(#clip-path);}.cls-3{fill:#007dba;}.cls-4{fill:#b2d235;}.cls-5{fill:#00bdf2;}.cls-6{fill:#ed1d24;}.cls-7{clip-path:url(#clip-path-2);}.cls-8{fill:#fff;}</style><clipPath id="clip-path" transform="translate(0 0)"><rect class="cls-1" width="793.35" height="112.5"/></clipPath><clipPath id="clip-path-2" transform="translate(0 0)"><rect class="cls-1" width="793.35" height="112.5"/></clipPath></defs><title>SC Logo Horiz Rev</title><g id="Layer_2" data-name="Layer 2"><g id="Layer_1-2" data-name="Layer 1"><g id="SC_Logo_Horiz_Rev" data-name="SC Logo Horiz Rev"><g class="cls-2"><polygon class="cls-3" points="0 96.14 111 96.14 110.99 96.1 36.91 77.64 0 96.14"/><polygon class="cls-4" points="0 96.14 36.9 77.64 13.98 71.92 0 96.14"/><polygon class="cls-5" points="36.9 77.63 110.99 96.11 86.09 52.98 36.9 77.63"/><polygon class="cls-6" points="55.5 0 16.93 66.82 83.12 47.84 55.5 0"/><g class="cls-7"><path class="cls-8" d="M133.2,92.79l1.41-8.8a30.34,30.34,0,0,0,17.25,4.92c7.66,0,12.59-3.25,12.59-8.53,0-4-2.47-6.52-8.81-9.68-1.4-.7-7.56-3.35-9.68-4.31C138.66,63,133.9,58.11,133.9,50.1c0-9.15,7.58-15.57,20.34-15.57A31.62,31.62,0,0,1,170,38.31l-1.5,8.45a28.78,28.78,0,0,0-14.7-4.23c-7.21,0-10.91,3.35-10.91,7.75,0,3.69,2.55,5.9,7.22,8.1,1.67.79,9.24,3.95,10.65,4.57,8.8,4,12.76,9.24,12.76,16.73C173.51,90,165,97,152.21,97c-11.44,0-17.42-3.26-19-4.22M197.59,97C186.68,97,178,90,178,75c0-14.78,8.89-22,19.62-22,11.27,0,19.54,7.74,19.54,22,0,14.61-8.8,22-19.54,22m0-7.3c6.61,0,10.92-6.25,10.92-14.7s-4.23-14.7-10.92-14.7c-7.39,0-10.91,7-10.91,14.7,0,8.19,4,14.7,10.91,14.7m25.21-5.55V53.8h8.62V81.26c0,4.93,1.59,8.1,6.78,8.1,4.4,0,8.88-4.14,10.64-6.34V53.8h8.63V96.13h-7.39l-.71-5.37c-1.84,1.59-7.13,6.25-14,6.25-8.45,0-12.58-5.19-12.58-12.85m66.28,12.06a29.53,29.53,0,0,1-6.6.79c-8.1,0-12.32-4.05-12.32-12.49V61.1h-6.08V53.8h6.08V42.36l8.53-2.46V53.8h8.89l1.24,7.3H278.69V83.63c0,4,2.21,5.28,5.37,5.28a14.63,14.63,0,0,0,3.88-.44Zm41.59-30.45V96.13h-8.54V68.68c0-4.85-1.67-8.1-6.86-8.1-4.4,0-8.8,4.22-10.65,6.42V96.13h-8.54V35l8.54-2.46v26.3c1.85-1.57,6.87-5.8,13.47-5.8,8.44,0,12.58,5.1,12.58,12.76M345.4,76.24c.09,4.49,1.76,13.38,11.88,13.38,7.83,0,13.73-4.84,15-6l1.24,7.57c-1.77,1.5-7.05,5.81-17.17,5.81-11.61,0-19.53-7.83-19.53-22.09,0-14.78,8.89-22,18.74-22,12.59,0,18,10.3,18,21.21v2.11Zm19.36-6.69c-.53-2.81-1.67-9.68-9.33-9.68-6.16,0-8.89,5.46-9.59,9.68Zm24.15-8.18c2.55-3.7,7.39-8.36,14.61-8.36l1.23,7.74c-6.69,0-11.35,2.73-15.4,9.25V96.13h-8.63V53.8h7.13Zm54.92,4.4V96.13h-8.62V68.68c0-4.85-1.59-8.1-6.78-8.1-4.4,0-8.89,4.22-10.65,6.42V96.13h-8.62V53.8h7.39l.7,5.46c1.85-1.68,7.22-6.25,14-6.25,8.44,0,12.58,5.1,12.58,12.76M515,39.45l-1.32,9a26.14,26.14,0,0,0-16.28-5.9c-12.67,0-18.92,10.21-18.92,23.24,0,13.82,6.77,23.14,18.92,23.14,8.45,0,15.14-4.84,17.16-6.42l1.24,9C515,92.43,509,97,497.29,97c-16.45,0-28.16-11.88-28.16-31.24s11.71-31.24,28.16-31.24c10.91,0,16.46,4,17.69,4.92M538.35,97c-10.91,0-19.63-7-19.63-22,0-14.78,8.89-22,19.63-22,11.26,0,19.53,7.74,19.53,22,0,14.61-8.8,22-19.53,22m0-7.3c6.6,0,10.91-6.25,10.91-14.7s-4.23-14.7-10.91-14.7c-7.4,0-10.91,7-10.91,14.7,0,8.19,3.95,14.7,10.91,14.7M623,65.77V96.13h-8.53V68.68c0-4.85-1.42-8.1-6.61-8.1-4.4,0-8.62,4.13-10.38,6.42V96.13h-8.63V68.68c0-4.85-1.4-8.1-6.6-8.1-4.4,0-8.62,4.22-10.38,6.42V96.13h-8.63V53.8h7.39l.71,5.46c1.85-1.68,7.13-6.25,13.9-6.25,5.9,0,9.51,2.47,11.18,6.6,2.73-2.64,7.84-6.6,14.44-6.6,8.45,0,12.14,5.1,12.14,12.76m15.78-6.51A17.71,17.71,0,0,1,652,53c10,0,16.72,7,16.72,22,0,15.58-10.39,22-20.42,22a25.58,25.58,0,0,1-8.71-1.76V110l-8.63,2.46V53.8H638Zm.79,6.77V88.21a24.56,24.56,0,0,0,8.1,1.5c8.27,0,12.4-6.34,12.4-14.7,0-8.89-3.78-14.7-10.47-14.7-5,0-9.15,4.67-10,5.72m60.05,30.1-.35-5.19A15.53,15.53,0,0,1,686.66,97c-7.92,0-14.26-4.13-14.26-13.2,0-12.67,17.16-14.43,26.14-15.4V67.09c0-3.08-1.24-6.78-8.27-6.78-6.34,0-12.85,3.34-13.91,3.87l-1.14-7.56A39.52,39.52,0,0,1,690.88,53c12.59,0,16.28,5.72,16.28,15V96.13Zm-1.05-20.95c-9.68,1-17.7,3-17.7,8.89,0,3.79,2.65,5.64,6.52,5.64,5.81,0,10.21-4.58,11.18-5.55Zm51.54-9.41V96.13h-8.62V68.68c0-4.85-1.59-8.1-6.78-8.1-4.4,0-8.89,4.22-10.65,6.42V96.13h-8.62V53.8h7.39l.7,5.46c1.85-1.68,7.22-6.25,14-6.25,8.45,0,12.59,5.1,12.59,12.76M763,53.8l10.82,31.5,10.65-31.5h8.89s-12.23,33-16.9,45.77c-4.22,11.52-11.26,12.14-14.87,12.14a16.09,16.09,0,0,1-3.43-.36L757,103.79a15.86,15.86,0,0,0,4.67.79c4.31,0,5.8-3,6.51-4.93s1.32-3.78,1.32-3.78L754,53.8Z" transform="translate(0 0)"/></g></g></g></g></g></svg>